<mxfile host="app.diagrams.net" modified="2020-12-31T03:08:02.215Z" agent="5.0 (Windows NT 10.0; Win64; x64) AppleWebKit/537.36 (KHTML, like Gecko) Chrome/85.0.4183.83 Safari/537.36" etag="cftHXtXBWzRwJb9e_jtZ" version="14.1.2" type="github">
  <diagram id="FGl3cgiMHWDqKWi2-OIc" name="第 1 页">
    <mxGraphModel dx="1422" dy="762" grid="1" gridSize="10" guides="1" tooltips="1" connect="1" arrows="1" fold="1" page="1" pageScale="1" pageWidth="827" pageHeight="1169" math="0" shadow="0">
      <root>
        <mxCell id="0" />
        <mxCell id="1" parent="0" />
        <mxCell id="N162P-0lkk_yVSZdsrJL-4" style="edgeStyle=orthogonalEdgeStyle;rounded=0;orthogonalLoop=1;jettySize=auto;html=1;entryX=0.5;entryY=0;entryDx=0;entryDy=0;" edge="1" parent="1" source="N162P-0lkk_yVSZdsrJL-1" target="N162P-0lkk_yVSZdsrJL-3">
          <mxGeometry relative="1" as="geometry" />
        </mxCell>
        <mxCell id="N162P-0lkk_yVSZdsrJL-1" value="performDraw" style="rounded=0;whiteSpace=wrap;html=1;" vertex="1" parent="1">
          <mxGeometry x="140" y="90" width="120" height="60" as="geometry" />
        </mxCell>
        <mxCell id="N162P-0lkk_yVSZdsrJL-6" style="edgeStyle=orthogonalEdgeStyle;rounded=0;orthogonalLoop=1;jettySize=auto;html=1;exitX=0.5;exitY=1;exitDx=0;exitDy=0;" edge="1" parent="1" source="N162P-0lkk_yVSZdsrJL-3" target="N162P-0lkk_yVSZdsrJL-5">
          <mxGeometry relative="1" as="geometry" />
        </mxCell>
        <mxCell id="N162P-0lkk_yVSZdsrJL-3" value="draw" style="rounded=0;whiteSpace=wrap;html=1;" vertex="1" parent="1">
          <mxGeometry x="140" y="230" width="120" height="60" as="geometry" />
        </mxCell>
        <mxCell id="N162P-0lkk_yVSZdsrJL-8" value="" style="edgeStyle=orthogonalEdgeStyle;rounded=0;orthogonalLoop=1;jettySize=auto;html=1;" edge="1" parent="1" source="N162P-0lkk_yVSZdsrJL-5" target="N162P-0lkk_yVSZdsrJL-7">
          <mxGeometry relative="1" as="geometry" />
        </mxCell>
        <mxCell id="N162P-0lkk_yVSZdsrJL-5" value="drawsoftware" style="rounded=0;whiteSpace=wrap;html=1;" vertex="1" parent="1">
          <mxGeometry x="140" y="390" width="120" height="60" as="geometry" />
        </mxCell>
        <mxCell id="N162P-0lkk_yVSZdsrJL-10" style="edgeStyle=orthogonalEdgeStyle;rounded=0;orthogonalLoop=1;jettySize=auto;html=1;" edge="1" parent="1" source="N162P-0lkk_yVSZdsrJL-7">
          <mxGeometry relative="1" as="geometry">
            <mxPoint x="480" y="590" as="targetPoint" />
          </mxGeometry>
        </mxCell>
        <mxCell id="N162P-0lkk_yVSZdsrJL-7" value="&lt;pre style=&quot;background-color: #2b2b2b ; color: #a9b7c6 ; font-family: &amp;#34;consolas&amp;#34; , monospace ; font-size: 12.0pt&quot;&gt;&lt;span style=&quot;color: #9876aa&quot;&gt;mView&lt;/span&gt;.draw(canvas)&lt;span style=&quot;color: #cc7832&quot;&gt;;&lt;/span&gt;&lt;/pre&gt;" style="rounded=0;whiteSpace=wrap;html=1;" vertex="1" parent="1">
          <mxGeometry x="125" y="560" width="150" height="60" as="geometry" />
        </mxCell>
        <mxCell id="N162P-0lkk_yVSZdsrJL-14" style="edgeStyle=orthogonalEdgeStyle;rounded=0;orthogonalLoop=1;jettySize=auto;html=1;entryX=0.475;entryY=0;entryDx=0;entryDy=0;entryPerimeter=0;" edge="1" parent="1" source="N162P-0lkk_yVSZdsrJL-9" target="N162P-0lkk_yVSZdsrJL-12">
          <mxGeometry relative="1" as="geometry" />
        </mxCell>
        <mxCell id="N162P-0lkk_yVSZdsrJL-9" value="&lt;pre style=&quot;background-color: #2b2b2b ; color: #a9b7c6 ; font-family: &amp;#34;consolas&amp;#34; , monospace ; font-size: 12.0pt&quot;&gt;&lt;span style=&quot;color: #9876aa&quot;&gt;mView&lt;/span&gt;.draw(canvas)&lt;span style=&quot;color: #cc7832&quot;&gt;;&lt;/span&gt;&lt;/pre&gt;" style="rounded=0;whiteSpace=wrap;html=1;" vertex="1" parent="1">
          <mxGeometry x="510" y="560" width="120" height="60" as="geometry" />
        </mxCell>
        <mxCell id="N162P-0lkk_yVSZdsrJL-11" value="View" style="text;html=1;align=center;verticalAlign=middle;resizable=0;points=[];autosize=1;" vertex="1" parent="1">
          <mxGeometry x="540" y="520" width="40" height="20" as="geometry" />
        </mxCell>
        <mxCell id="N162P-0lkk_yVSZdsrJL-18" style="edgeStyle=orthogonalEdgeStyle;rounded=0;orthogonalLoop=1;jettySize=auto;html=1;" edge="1" parent="1" source="N162P-0lkk_yVSZdsrJL-12">
          <mxGeometry relative="1" as="geometry">
            <mxPoint x="580" y="1200" as="targetPoint" />
          </mxGeometry>
        </mxCell>
        <mxCell id="N162P-0lkk_yVSZdsrJL-12" value="&lt;pre style=&quot;background-color: #2b2b2b ; color: #a9b7c6 ; font-family: &amp;#34;consolas&amp;#34; , monospace ; font-size: 12.0pt&quot;&gt;1、drawBackground(canvas)&lt;span style=&quot;color: #cc7832&quot;&gt;;&lt;/span&gt;&lt;/pre&gt;&lt;pre style=&quot;background-color: #2b2b2b ; color: #a9b7c6 ; font-family: &amp;#34;consolas&amp;#34; , monospace ; font-size: 12.0pt&quot;&gt;&lt;pre style=&quot;font-family: &amp;#34;consolas&amp;#34; , monospace ; font-size: 12pt&quot;&gt;2、onDraw(canvas)&lt;span style=&quot;color: #cc7832&quot;&gt;;&lt;/span&gt;&lt;/pre&gt;&lt;pre style=&quot;font-family: &amp;#34;consolas&amp;#34; , monospace ; font-size: 12pt&quot;&gt;3、dispatchDraw(canvas)&lt;span style=&quot;color: #cc7832&quot;&gt;;&lt;/span&gt;&lt;/pre&gt;&lt;pre style=&quot;font-family: &amp;#34;consolas&amp;#34; , monospace ; font-size: 12pt&quot;&gt;4、onDrawForeground(canvas)&lt;/pre&gt;&lt;pre style=&quot;font-family: &amp;#34;consolas&amp;#34; , monospace ; font-size: 12pt&quot;&gt;&lt;span style=&quot;font-family: &amp;#34;consolas&amp;#34; , monospace ; font-size: 12pt&quot;&gt;5、drawDefaultFocusHighlight(canvas)&lt;/span&gt;&lt;span style=&quot;font-family: &amp;#34;consolas&amp;#34; , monospace ; font-size: 12pt ; color: rgb(204 , 120 , 50)&quot;&gt;;&lt;/span&gt;&lt;/pre&gt;&lt;/pre&gt;" style="rounded=1;whiteSpace=wrap;html=1;" vertex="1" parent="1">
          <mxGeometry x="380" y="810" width="400" height="270" as="geometry" />
        </mxCell>
        <mxCell id="N162P-0lkk_yVSZdsrJL-16" style="edgeStyle=orthogonalEdgeStyle;rounded=0;orthogonalLoop=1;jettySize=auto;html=1;entryX=0.998;entryY=0.43;entryDx=0;entryDy=0;entryPerimeter=0;" edge="1" parent="1" source="N162P-0lkk_yVSZdsrJL-15" target="N162P-0lkk_yVSZdsrJL-12">
          <mxGeometry relative="1" as="geometry" />
        </mxCell>
        <mxCell id="N162P-0lkk_yVSZdsrJL-15" value="&lt;font style=&quot;font-size: 19px&quot;&gt;1、用户绘制当前View或ViewGroup的背景&lt;br&gt;&lt;/font&gt;&lt;div style=&quot;font-size: 19px&quot;&gt;&lt;span&gt;&lt;font style=&quot;font-size: 19px&quot;&gt;2、用于绘制自身内容&lt;/font&gt;&lt;/span&gt;&lt;/div&gt;&lt;div style=&quot;font-size: 19px&quot;&gt;&lt;font style=&quot;font-size: 19px&quot;&gt;&lt;span&gt;3、如果当前是ViewGroup，则会调用该方法绘制子View，&lt;/span&gt;&lt;span&gt;因此，如果ViewGroup绘制内容需要覆盖在子View上，&lt;/span&gt;&lt;/font&gt;&lt;/div&gt;&lt;div style=&quot;font-size: 19px&quot;&gt;&lt;span&gt;&lt;font style=&quot;font-size: 19px&quot;&gt;&amp;nbsp; &amp;nbsp; &amp;nbsp;重写该方法，并在super后绘制自己的内容。或者后续步骤绘制&lt;/font&gt;&lt;/span&gt;&lt;/div&gt;&lt;div style=&quot;font-size: 19px&quot;&gt;&lt;span&gt;&lt;font style=&quot;font-size: 19px&quot;&gt;4、绘制前景，例如修饰等&lt;/font&gt;&lt;/span&gt;&lt;/div&gt;&lt;div style=&quot;font-size: 19px&quot;&gt;&lt;font style=&quot;font-size: 19px&quot;&gt;5、绘制活得焦点高亮时界面&lt;/font&gt;&lt;/div&gt;" style="text;html=1;align=left;verticalAlign=middle;resizable=0;points=[];autosize=1;" vertex="1" parent="1">
          <mxGeometry x="880" y="880" width="960" height="90" as="geometry" />
        </mxCell>
        <mxCell id="N162P-0lkk_yVSZdsrJL-20" style="edgeStyle=orthogonalEdgeStyle;rounded=0;orthogonalLoop=1;jettySize=auto;html=1;entryX=0;entryY=0.5;entryDx=0;entryDy=0;" edge="1" parent="1" source="N162P-0lkk_yVSZdsrJL-17" target="N162P-0lkk_yVSZdsrJL-12">
          <mxGeometry relative="1" as="geometry">
            <mxPoint x="160" y="920" as="targetPoint" />
            <Array as="points">
              <mxPoint x="160" y="1270" />
              <mxPoint x="160" y="945" />
            </Array>
          </mxGeometry>
        </mxCell>
        <mxCell id="N162P-0lkk_yVSZdsrJL-17" value="&lt;pre style=&quot;background-color: #2b2b2b ; color: #a9b7c6 ; font-family: &amp;#34;consolas&amp;#34; , monospace ; font-size: 12.0pt&quot;&gt;child.draw(canvas&lt;span style=&quot;color: #cc7832&quot;&gt;, this, &lt;/span&gt;drawingTime)&lt;/pre&gt;" style="rounded=0;whiteSpace=wrap;html=1;" vertex="1" parent="1">
          <mxGeometry x="430" y="1210" width="300" height="120" as="geometry" />
        </mxCell>
        <mxCell id="N162P-0lkk_yVSZdsrJL-19" value="3、dispatchDraw" style="text;html=1;strokeColor=none;fillColor=none;align=center;verticalAlign=middle;whiteSpace=wrap;rounded=0;" vertex="1" parent="1">
          <mxGeometry x="600" y="1130" width="150" height="20" as="geometry" />
        </mxCell>
        <mxCell id="N162P-0lkk_yVSZdsrJL-21" value="ViewRootImpl" style="text;html=1;align=center;verticalAlign=middle;resizable=0;points=[];autosize=1;" vertex="1" parent="1">
          <mxGeometry x="155" y="30" width="90" height="20" as="geometry" />
        </mxCell>
      </root>
    </mxGraphModel>
  </diagram>
</mxfile>
